<?xml version="1.0" standalone="no"?><!DOCTYPE svg PUBLIC "-//W3C//DTD SVG 1.1//EN" "http://www.w3.org/Graphics/SVG/1.1/DTD/svg11.dtd"><svg class="icon" width="200px" height="200.00px" viewBox="0 0 1024 1024" version="1.1" xmlns="http://www.w3.org/2000/svg"><path d="M891 428.8H465.8c-20.4 0-37 16.5-37 37v92.4c0 20.4 16.5 37 37 37h258.9c20.4 0 37 16.6 37 37v18.4c0 61.3-49.7 110.9-110.9 110.9H299.4c-20.4 0-37-16.6-37-37V373.2c0-61.3 49.7-110.9 110.9-110.9h517.6c20.4 0 37-16.5 37-37l0.1-92.3c0-20.4-16.5-37-37-37H373.3C220.2 96 96 220.2 96 373.3V891c0 20.4 16.6 37 37 37h545.4C816.2 928 928 816.3 928 678.4V465.8c0-20.4-16.6-37-37-37z" fill="#d81e06" /></svg>