<svg t="1630399015022" class="icon" viewBox="0 0 1024 1024" version="1.1" xmlns="http://www.w3.org/2000/svg" p-id="2919" width="48" height="48"><path d="M812.202667 592.042667l10.069333 6.741333a40.064 40.064 0 0 1 0 66.645333L534.016 857.6a40.064 40.064 0 0 1-44.458667 0l-288.256-192.170667a40.064 40.064 0 0 1 0-66.645333l10.026667-6.741333L488.106667 776.533333a42.666667 42.666667 0 0 0 42.410666 2.858667l4.949334-2.858667 276.736-184.490666z m0-120.149334l10.069333 6.741334a40.064 40.064 0 0 1 0 66.645333l-288.256 192.170667a40.064 40.064 0 0 1-44.458667 0L201.301333 545.28a40.064 40.064 0 0 1 0-66.645333l10.026667-6.741334 276.778667 184.490667a42.666667 42.666667 0 0 0 42.410666 2.816l4.949334-2.816 276.736-184.490667z m-278.186667-305.578666l288.256 192.170666a40.064 40.064 0 0 1 0 66.645334l-288.256 192.170666a40.064 40.064 0 0 1-44.458667 0L201.301333 425.130667a40.064 40.064 0 0 1 0-66.645334l288.256-192.170666a40.064 40.064 0 0 1 44.458667 0z" fill="#4f75af" p-id="2920"></path></svg>