<svg t="1582193298261" class="icon" viewBox="64 64 896 896" version="1.1" xmlns="http://www.w3.org/2000/svg" p-id="1734" width="1em" height="1em"><path d="M512.516129 292.645161c-2.580645-2.580645-6.709677-2.580645-9.290323 0s-2.580645 6.709677 0 9.290323l88.774194 88.774193h-232.258065c-3.612903 0-6.709677 3.096774-6.709677 6.709678s3.096774 6.709677 6.709677 6.709677h232.258065L502.709677 492.903226c-1.032258 1.032258-2.064516 3.096774-2.064516 4.645161 0 1.548387 0.516129 3.612903 2.064516 4.645161s3.096774 2.064516 4.645162 2.064517 3.612903-0.516129 4.645161-2.064517l100.129032-100.129032c2.580645-2.580645 2.580645-6.709677 0-9.290322L512.516129 292.645161z" fill="#999999" p-id="1735"></path><path d="M944 597.677419c-2.064516-2.064516-47.483871-46.451613-130.580645-59.870967-27.354839-4.645161-56.258065-5.16129-85.67742-1.548387 23.741935-42.322581 36.645161-89.806452 36.645162-138.322581 0-154.83871-125.935484-280.774194-280.774194-280.774194S202.83871 242.580645 202.83871 397.419355c0 39.225806 8.258065 77.419355 23.741935 113.032258H87.741935c-3.612903 0-6.709677 3.096774-6.709677 6.709677v381.419355c0 3.612903 3.096774 6.709677 6.709677 6.709678h395.870968c1.548387 0 2.580645-0.516129 3.612903-1.032258l455.741936-296.258065c1.548387-1.032258 2.580645-3.096774 3.096774-5.16129 0-2.064516-0.516129-4.129032-2.064516-5.161291z m-233.290323-59.870967c-100.129032 16.516129-190.451613 76.903226-249.290322 124.903225L242.580645 513.032258c-17.548387-36.129032-26.322581-74.83871-26.32258-115.096774 0-147.612903 119.741935-267.354839 267.354838-267.354839 147.612903 0 267.354839 119.741935 267.354839 267.354839 0 49.032258-13.935484 97.548387-40.258065 139.870968z m-616.258064-13.935484h140.903226l216.774193 148.645161-92.903226 99.612903-132.129032-92.903226c-1.548387-1.032258-3.096774-1.548387-5.16129-1.032258-1.548387 0.516129-3.096774 1.032258-4.129032 2.580646-2.064516 3.096774-1.548387 7.225806 1.548387 9.290322l136.258064 96.516129c2.580645 2.064516 6.709677 1.548387 8.774194-1.032258L466.580645 676.129032c83.612903-69.677419 211.612903-147.612903 344.258065-125.935484 61.935484 10.322581 103.225806 39.225806 117.677419 51.096775l-446.451613 290.580645h-387.096774v-368z" fill="#999999" p-id="1736"></path></svg>